<?xml version="1.0" encoding="iso-8859-1"?>
<!-- Uploaded to: SVG Repo, www.svgrepo.com, Generator: SVG Repo Mixer Tools -->
<svg height="800px" width="800px" version="1.1" id="Capa_1" xmlns="http://www.w3.org/2000/svg" xmlns:xlink="http://www.w3.org/1999/xlink" 
	 viewBox="0 0 464 464" xml:space="preserve">
<g>
	<path style="fill:#82C8DC;" d="M255.84,7.934c-14.258-10.578-33.422-10.578-47.68,0L132.624,64h198.748L255.84,7.934z"/>
	<path style="fill:#82C8DC;" d="M406.305,119.621L376,97.126v160.536l-108.286,80.375l-2.335-1.733
		c-19.969-14.828-46.789-14.828-66.758,0l-2.335,1.733L88,257.659V97.123l-30.301,22.491C51.625,124.121,48,131.324,48,138.887
		v77.012V240v7.881c0.056,0.042,0.104,0.093,0.16,0.134L182.864,348L49.219,447.193c1.673,5.294,5.036,9.823,9.574,12.823
		L208.16,349.148c14.258-10.578,33.422-10.578,47.68,0l149.363,110.87c4.538-2.999,7.902-7.527,9.576-12.821L281.136,348
		l134.7-99.977c0.058-0.043,0.106-0.095,0.164-0.138V240v-24.102v-77.012C416,131.324,412.375,124.121,406.305,119.621z"/>
	<path style="fill:#9EDCF1;" d="M281.136,348l133.643,99.197c-1.674,5.293-5.038,9.822-9.576,12.821L255.84,349.148
		c-14.258-10.578-33.422-10.578-47.68,0L58.793,460.016c-4.538-3-7.901-7.529-9.574-12.823L182.864,348L48.16,248.016
		c-0.056-0.042-0.104-0.092-0.16-0.134V440c0,13.255,10.745,24,24,24h320c13.255,0,24-10.745,24-24V247.886
		c-0.058,0.043-0.106,0.095-0.164,0.138L281.136,348z"/>
	<path style="fill:#E86464;" d="M196.286,338.038l2.335-1.733c19.969-14.828,46.789-14.828,66.758,0l2.335,1.733L376,257.663V97.126
		V72c0-4.418-3.582-8-8-8h-36.628H132.624H96c-4.418,0-8,3.582-8,8v25.123v160.536L196.286,338.038z M205.899,142.896
		c10.189,0,19.413,4.123,26.101,10.789c6.688-6.666,15.912-10.789,26.101-10.789c20.421,0,36.976,16.555,36.976,36.976
		c0,28.276-33.17,62.261-63.077,76.127c-29.907-13.866-63.077-47.851-63.077-76.127
		C168.923,159.451,185.478,142.896,205.899,142.896z"/>
	<path style="fill:#FFFFFF;" d="M232,256c29.907-13.866,63.077-47.851,63.077-76.127c0-20.421-16.555-36.976-36.976-36.976
		c-10.189,0-19.413,4.123-26.101,10.789c-6.688-6.666-15.912-10.789-26.101-10.789c-20.421,0-36.976,16.555-36.976,36.976
		C168.923,208.149,202.093,242.134,232,256z"/>
</g>
</svg>